<svg width="40" height="36" viewBox="0 0 40 36" fill="none" xmlns="http://www.w3.org/2000/svg">
<path d="M0.949551 7.20535C1.55851 5.79535 2.43657 4.51762 3.53456 3.44368C4.63339 2.36655 5.92893 1.51056 7.35075 0.922277C8.82508 0.309838 10.4064 -0.00364257 12.0029 3.19327e-05C14.2426 3.19327e-05 16.4278 0.613347 18.3268 1.77183C18.7811 2.04896 19.2127 2.35335 19.6216 2.68499C20.0305 2.35335 20.4621 2.04896 20.9164 1.77183C22.8154 0.613347 25.0006 3.19327e-05 27.2403 3.19327e-05C28.8531 3.19327e-05 30.4159 0.308961 31.8924 0.922277C33.319 1.51288 34.6047 2.36243 35.7086 3.44368C36.8081 4.51641 37.6863 5.79444 38.2936 7.20535C38.9251 8.67276 39.2477 10.231 39.2477 11.8347C39.2477 13.3476 38.9388 14.924 38.3254 16.5277C37.8121 17.868 37.0761 19.2581 36.1357 20.6619C34.6455 22.8835 32.5966 25.2005 30.0525 27.5492C25.8365 31.4427 21.6614 34.1322 21.4843 34.2412L20.4075 34.9317C19.9305 35.2361 19.3172 35.2361 18.8402 34.9317L17.7635 34.2412C17.5863 34.1276 13.4158 31.4427 9.19523 27.5492C6.65111 25.2005 4.60218 22.8835 3.11206 20.6619C2.17164 19.2581 1.43112 17.868 0.922295 16.5277C0.308979 14.924 4.95911e-05 13.3476 4.95911e-05 11.8347C-0.00449371 10.231 0.318066 8.67276 0.949551 7.20535Z" fill="#FE0202"/>
</svg>
