<svg width="99" height="40" viewBox="0 0 99 40" fill="none" xmlns="http://www.w3.org/2000/svg">
<g clip-path="url(#clip0_13_144)">
<path fill-rule="evenodd" clip-rule="evenodd" d="M61.4147 31.2296C55.6831 36.9079 47.3462 39.9329 40.1557 39.9329C30.082 39.9329 21.0505 34.9529 14.1726 26.6686C13.6515 26.0172 14.1031 25.1327 14.763 25.6446C22.162 31.4158 31.2978 34.8599 40.7462 34.8599C47.103 34.8599 54.1198 33.0914 60.5809 29.4145C61.5532 28.9025 62.3525 30.2988 61.4146 31.2296H61.4147Z" fill="#FF9900"/>
<path fill-rule="evenodd" clip-rule="evenodd" d="M63.8116 27.5528C63.0824 26.2962 58.9485 26.9477 57.1075 27.2735C56.5516 27.3665 56.4474 26.715 56.9685 26.2496C60.2685 23.1313 65.6527 24.062 66.278 25.086C66.9032 26.1099 66.1043 33.3699 63.0122 36.8145C62.526 37.3264 62.0743 37.0471 62.2829 36.349C62.9779 34.0219 64.5411 28.8555 63.8116 27.5528Z" fill="#FF9900"/>
<path fill-rule="evenodd" clip-rule="evenodd" d="M57.2116 4.37561V1.34964C57.2076 1.25046 57.2193 1.15127 57.2458 1.05852C57.2724 0.965774 57.3132 0.881546 57.3656 0.811311C57.418 0.741076 57.4809 0.686406 57.5501 0.650851C57.6193 0.615296 57.6933 0.599654 57.7674 0.60494H67.8411C67.9927 0.600662 68.1395 0.676289 68.25 0.815554C68.3604 0.95482 68.4257 1.1466 68.4317 1.34964V3.90945C68.4317 4.32832 68.1538 4.88652 67.6674 5.81772L62.457 15.7777C64.4023 15.7311 66.452 16.1034 68.1886 17.4062C68.5707 17.6854 68.6748 18.1509 68.7096 18.5697V21.7811C68.7096 22.2465 68.3622 22.7581 67.9804 22.4792C64.8888 20.2917 60.7551 20.059 57.351 22.5258C57.0036 22.7584 56.6217 22.2931 56.6217 21.8276V18.7562C56.6217 18.2908 56.6217 17.4535 57.0038 16.7085L63.048 5.11961H57.8021C57.6506 5.12389 57.5038 5.04836 57.3934 4.90925C57.283 4.77013 57.2177 4.57853 57.2116 4.37561ZM20.4948 23.1311H17.4379C17.3009 23.1126 17.1723 23.0342 17.0719 22.9081C16.9714 22.7819 16.9047 22.615 16.8821 22.433V1.39623C16.8881 1.19321 16.9533 1.00145 17.0638 0.862192C17.1742 0.72293 17.321 0.647285 17.4726 0.651525H20.321C20.4619 0.654379 20.5969 0.727497 20.6997 0.856591C20.8025 0.985685 20.8656 1.16149 20.8768 1.34964V4.09566H20.9463C21.6755 1.44282 23.1 0.186212 24.9758 0.186212C26.8863 0.186212 28.102 1.44282 28.9358 4.09566C29.6651 1.44282 31.3674 0.186212 33.1739 0.186212C34.4592 0.186212 35.8487 0.884326 36.7171 2.51336C37.6895 4.28187 37.4814 6.84167 37.4814 9.12223V22.4332C37.4754 22.6362 37.4101 22.8279 37.2997 22.9672C37.1893 23.1065 37.0425 23.1821 36.8909 23.1779H33.8684C33.5558 23.1313 33.3126 22.8056 33.3126 22.4332V11.263C33.3126 10.3787 33.382 8.14473 33.2432 7.30699C33.0001 5.91076 32.34 5.49189 31.4368 5.49189C31.038 5.5071 30.6513 5.67823 30.3242 5.9842C29.997 6.29017 29.7438 6.71763 29.5957 7.21395C29.2831 8.28435 29.3179 10.053 29.3179 11.263V22.4332C29.3119 22.6362 29.2466 22.8279 29.1362 22.9672C29.0258 23.1065 28.879 23.1821 28.7274 23.1779H25.6706C25.3579 23.1313 25.1147 22.8056 25.1147 22.4332V11.263C25.1147 8.93588 25.3926 5.4453 23.239 5.4453C21.0506 5.4453 21.12 8.79626 21.12 11.263V22.4332C21.0982 22.6322 21.0223 22.8135 20.907 22.9423C20.7916 23.0711 20.6448 23.1384 20.4948 23.1313V23.1311ZM77.1158 0.186212C81.6663 0.186212 84.1327 5.39886 84.1327 12.0543C84.1327 18.4771 81.4233 23.5966 77.1158 23.5966C72.6695 23.5966 70.2379 18.3839 70.2379 11.8681C70.2031 5.30568 72.6695 0.185646 77.1158 0.185646V0.186212ZM77.1158 4.51452C74.8579 4.51452 74.719 8.65677 74.719 11.2166C74.719 13.7764 74.6842 19.2683 77.0811 19.2683C79.4433 19.2683 79.5822 14.8468 79.5822 12.1474C79.5822 10.3787 79.5127 8.2379 79.1306 6.56228C78.7831 5.07288 78.0885 4.51452 77.1158 4.51452ZM90.0032 23.1311H86.9463C86.6337 23.0845 86.3905 22.7589 86.3905 22.3864V1.30277C86.4097 1.11058 86.4799 0.934116 86.5884 0.805844C86.697 0.677573 86.8364 0.606127 86.9811 0.604654H89.8295C89.9587 0.610757 90.0828 0.673142 90.1832 0.78234C90.2835 0.891538 90.3544 1.04159 90.3853 1.20974V4.42107H90.4548C91.3232 1.53543 92.5043 0.185784 94.6233 0.185784C95.978 0.185784 97.3327 0.837171 98.2011 2.65255C99 4.32803 99 7.16708 99 9.21498V22.4793C98.9791 22.6665 98.9071 22.8366 98.7981 22.9569C98.689 23.0772 98.5506 23.1391 98.4094 23.1307H95.3524C95.0745 23.0841 94.8314 22.805 94.7966 22.4793V11.0304C94.7966 8.70322 95.005 5.35198 92.886 5.35198C92.1568 5.35198 91.4619 6.00337 91.1145 7.02746C90.6977 8.33023 90.6283 9.58727 90.6283 11.0301V22.3869C90.6089 22.5913 90.5349 22.7794 90.4199 22.9163C90.305 23.0532 90.1569 23.1297 90.0031 23.1316L90.0032 23.1311ZM49.1876 13.0783C49.1876 14.6607 49.2223 16.0104 48.6317 17.4539C48.1456 18.6175 47.3812 19.3156 46.5128 19.3156C45.3317 19.3156 44.637 18.1055 44.637 16.3369C44.637 12.8463 46.9644 12.1946 49.1876 12.1946V13.0783ZM52.2792 23.0847C52.1802 23.2005 52.0565 23.2717 51.9257 23.2884C51.7949 23.3051 51.6635 23.2664 51.5499 23.1777C50.5426 22.0607 50.3345 21.5022 49.7784 20.4317C48.111 22.7116 46.8952 23.4104 44.7416 23.4104C42.171 23.4104 40.1562 21.2694 40.1562 17.0342C40.1562 13.6832 41.511 11.4492 43.422 10.3321C45.0894 9.35503 47.4171 9.16854 49.1883 8.88929V8.37739C49.1883 7.40031 49.2577 6.23645 48.8062 5.39871C48.4242 4.65401 47.7294 4.32831 47.1046 4.32831C45.9236 4.32831 44.8815 5.11947 44.6383 6.79508C44.5689 7.16737 44.3952 7.53979 44.1173 7.53979L41.1646 7.12092C40.9215 7.02788 40.6436 6.79523 40.713 6.28318C41.4077 1.44282 44.6383 0 47.5561 0C49.0498 0 50.9951 0.511904 52.1761 2.04776C53.6698 3.90945 53.5308 6.42337 53.5308 9.12209V15.4983C53.5308 17.4066 54.1213 18.2443 54.6771 19.3147C54.8856 19.687 54.9202 20.1525 54.6771 20.3851C54.0171 21.0832 52.9056 22.3864 52.2803 23.0845L52.2792 23.0847ZM9.06633 13.0783C9.06633 14.6607 9.1011 16.0104 8.51051 17.4539C8.02434 18.6175 7.26 19.3156 6.39156 19.3156C5.21049 19.3156 4.5158 18.1055 4.5158 16.3369C4.5158 12.8463 6.84317 12.1946 9.06633 12.1946V13.0783ZM12.1232 23.0847C12.0242 23.2005 11.9005 23.2717 11.7697 23.2884C11.6389 23.3051 11.5074 23.2664 11.3939 23.1777C10.3866 22.0607 10.1785 21.5022 9.62236 20.4317C7.95501 22.7116 6.73917 23.4104 4.58555 23.4104C2.01499 23.4104 0.000244141 21.2694 0.000244141 17.0342C0.000244141 13.6832 1.35496 11.4492 3.26603 10.3321C4.93337 9.35503 7.26106 9.16854 9.0323 8.88929V8.37739C9.0323 7.40031 9.10173 6.23645 8.65023 5.39871C8.26817 4.65401 7.57337 4.32831 6.94864 4.32831C5.76757 4.32831 4.72548 5.11947 4.48229 6.79508C4.41285 7.16737 4.23921 7.53979 3.96125 7.53979L1.00862 7.12092C0.765536 7.02788 0.487575 6.79523 0.557013 6.28318C1.2517 1.44282 4.48229 0 7.40015 0C8.89384 0 10.839 0.511904 12.0201 2.04776C13.5138 3.90945 13.3748 6.42337 13.3748 9.12209V15.4983C13.3748 17.4066 13.9653 18.2443 14.5211 19.3147C14.7296 19.687 14.7642 20.1525 14.5211 20.3851C13.8611 21.0832 12.7496 22.3864 12.1243 23.0845L12.1232 23.0847Z" fill="white"/>
</g>
<defs>
<clipPath id="clip0_13_144">
<rect width="99" height="39.9328" fill="white"/>
</clipPath>
</defs>
</svg>
