<svg width="25" height="31" viewBox="0 0 25 31" fill="none" xmlns="http://www.w3.org/2000/svg">
<path fill-rule="evenodd" clip-rule="evenodd" d="M0.875 30.0312V3.875C0.875 2.84729 1.28326 1.86166 2.00996 1.13496C2.73666 0.408258 3.72229 0 4.75 0L20.25 0C21.2777 0 22.2633 0.408258 22.99 1.13496C23.7167 1.86166 24.125 2.84729 24.125 3.875V30.0312C24.1251 30.1995 24.0814 30.3648 23.9982 30.5111C23.915 30.6573 23.7952 30.7793 23.6505 30.8651C23.5058 30.951 23.3413 30.9976 23.1731 31.0006C23.0049 31.0035 22.8388 30.9626 22.6912 30.8818L12.5 25.3212L2.30875 30.8818C2.16117 30.9626 1.99511 31.0035 1.8269 31.0006C1.6587 30.9976 1.49416 30.951 1.34948 30.8651C1.20479 30.7793 1.08496 30.6573 1.00176 30.5111C0.918564 30.3648 0.874877 30.1995 0.875 30.0312ZM12.81 7.94375C12.7817 7.88565 12.7376 7.83668 12.6828 7.80242C12.628 7.76816 12.5646 7.75 12.5 7.75C12.4354 7.75 12.372 7.76816 12.3172 7.80242C12.2624 7.83668 12.2183 7.88565 12.19 7.94375L10.9616 10.4334C10.937 10.4838 10.9005 10.5274 10.8553 10.5605C10.8101 10.5936 10.7574 10.6151 10.702 10.6233L7.95075 11.0224C7.88741 11.032 7.82801 11.0591 7.77919 11.1006C7.73037 11.1421 7.69407 11.1963 7.67435 11.2573C7.65464 11.3182 7.65229 11.3835 7.66757 11.4457C7.68286 11.5079 7.71516 11.5646 7.76088 11.6095L9.74875 13.5489C9.83012 13.6284 9.86694 13.7427 9.84756 13.8551L9.38062 16.5947C9.37009 16.6579 9.37741 16.7229 9.40175 16.7822C9.4261 16.8416 9.4665 16.8929 9.51842 16.9306C9.57035 16.9682 9.63174 16.9906 9.6957 16.9953C9.75966 17 9.82366 16.9867 9.8805 16.957L12.3411 15.6627C12.3905 15.6369 12.4453 15.6235 12.501 15.6235C12.5566 15.6235 12.6115 15.6369 12.6608 15.6627L15.1214 16.957C15.1782 16.9862 15.242 16.999 15.3056 16.9941C15.3693 16.9891 15.4303 16.9666 15.4819 16.9291C15.5335 16.8915 15.5737 16.8404 15.598 16.7813C15.6222 16.7223 15.6297 16.6577 15.6194 16.5947L15.1505 13.8531C15.1406 13.7981 15.1443 13.7414 15.1611 13.6881C15.178 13.6348 15.2076 13.5863 15.2474 13.547L17.2391 11.6076C17.2848 11.5627 17.3171 11.506 17.3324 11.4437C17.3477 11.3815 17.3454 11.3163 17.3256 11.2553C17.3059 11.1944 17.2696 11.1401 17.2208 11.0987C17.172 11.0572 17.1126 11.0301 17.0492 11.0205L14.298 10.6214C14.2426 10.6132 14.1899 10.5916 14.1447 10.5586C14.0995 10.5255 14.063 10.4819 14.0384 10.4315L12.81 7.94375Z" fill="#FE0606"/>
</svg>
