<svg width="24" height="24" viewBox="0 0 24 24" fill="none" xmlns="http://www.w3.org/2000/svg">
<path d="M3.75 6.09375H6.9375L7.69688 3.96563C7.74934 3.82 7.84548 3.69413 7.97217 3.6052C8.09885 3.51627 8.2499 3.46861 8.40469 3.46875H15.5953C15.9117 3.46875 16.1953 3.66797 16.3008 3.96563L17.0625 6.09375H20.25C21.2859 6.09375 22.125 6.93281 22.125 7.96875V18.6562C22.125 19.6922 21.2859 20.5312 20.25 20.5312H3.75C2.71406 20.5312 1.875 19.6922 1.875 18.6562V7.96875C1.875 6.93281 2.71406 6.09375 3.75 6.09375ZM12 16.7812C14.0719 16.7812 15.75 15.1031 15.75 13.0312C15.75 10.9594 14.0719 9.28125 12 9.28125C9.92813 9.28125 8.25 10.9594 8.25 13.0312C8.25 15.1031 9.92813 16.7812 12 16.7812ZM14.25 13.0312C14.25 13.628 14.0129 14.2003 13.591 14.6222C13.169 15.0442 12.5967 15.2812 12 15.2812C11.4033 15.2812 10.831 15.0442 10.409 14.6222C9.98705 14.2003 9.75 13.628 9.75 13.0312C9.75 12.4345 9.98705 11.8622 10.409 11.4403C10.831 11.0183 11.4033 10.7812 12 10.7812C12.5967 10.7812 13.169 11.0183 13.591 11.4403C14.0129 11.8622 14.25 12.4345 14.25 13.0312Z" fill="white"/>
</svg>
