<svg width="30" height="30" viewBox="0 0 49 49" fill="none" xmlns="http://www.w3.org/2000/svg">
<path d="M49 12.25C49 10.6255 48.3547 9.06763 47.206 7.91897C46.0574 6.77031 44.4995 6.125 42.875 6.125H6.125C4.50055 6.125 2.94263 6.77031 1.79397 7.91897C0.645312 9.06763 0 10.6255 0 12.25V27.5625H49V12.25ZM13.7812 15.3125C14.1874 15.3125 14.5768 15.4738 14.864 15.761C15.1512 16.0482 15.3125 16.4376 15.3125 16.8438V19.9062C15.3125 20.3124 15.1512 20.7018 14.864 20.989C14.5768 21.2762 14.1874 21.4375 13.7812 21.4375H7.65625C7.25014 21.4375 6.86066 21.2762 6.57349 20.989C6.28633 20.7018 6.125 20.3124 6.125 19.9062V16.8438C6.125 16.4376 6.28633 16.0482 6.57349 15.761C6.86066 15.4738 7.25014 15.3125 7.65625 15.3125H13.7812ZM49 33.6875V36.75C49 38.3745 48.3547 39.9324 47.206 41.081C46.0574 42.2297 44.4995 42.875 42.875 42.875H6.125C4.50055 42.875 2.94263 42.2297 1.79397 41.081C0.645312 39.9324 0 38.3745 0 36.75V33.6875H49Z" fill="white"/>
</svg>
