<svg width="20" height="20" viewBox="0 0 33 25" fill="none" xmlns="http://www.w3.org/2000/svg">
<path d="M30.4133 0.783813H8.01328C7.58893 0.783813 7.18196 0.943273 6.8819 1.22711C6.58185 1.51095 6.41328 1.89592 6.41328 2.29733V6.83787H14.4133V3.81084H24.0133V18.946H30.4133C30.8376 18.946 31.2446 18.7865 31.5446 18.5027C31.8447 18.2188 32.0133 17.8339 32.0133 17.4325V2.29733C32.0133 1.89592 31.8447 1.51095 31.5446 1.22711C31.2446 0.943273 30.8376 0.783813 30.4133 0.783813V0.783813ZM11.6133 5.65544C11.6133 5.76833 11.5659 5.8766 11.4815 5.95643C11.3971 6.03626 11.2826 6.08111 11.1633 6.08111H9.66328C9.54393 6.08111 9.42947 6.03626 9.34508 5.95643C9.26069 5.8766 9.21327 5.76833 9.21327 5.65544V4.23652C9.21327 4.12362 9.26069 4.01535 9.34508 3.93552C9.42947 3.85569 9.54393 3.81084 9.66328 3.81084H11.1633C11.2826 3.81084 11.3971 3.85569 11.4815 3.93552C11.5659 4.01535 11.6133 4.12362 11.6133 4.23652V5.65544ZM29.2133 15.4933C29.2133 15.6062 29.1659 15.7144 29.0815 15.7943C28.9971 15.8741 28.8826 15.9189 28.7633 15.9189H27.2633C27.1439 15.9189 27.0295 15.8741 26.9451 15.7943C26.8607 15.7144 26.8133 15.6062 26.8133 15.4933V14.0744C26.8133 13.9615 26.8607 13.8532 26.9451 13.7734C27.0295 13.6935 27.1439 13.6487 27.2633 13.6487H28.7633C28.8826 13.6487 28.9971 13.6935 29.0815 13.7734C29.1659 13.8532 29.2133 13.9615 29.2133 14.0744V15.4933ZM29.2133 10.5744C29.2133 10.6873 29.1659 10.7955 29.0815 10.8754C28.9971 10.9552 28.8826 11 28.7633 11H27.2633C27.1439 11 27.0295 10.9552 26.9451 10.8754C26.8607 10.7955 26.8133 10.6873 26.8133 10.5744V9.15544C26.8133 9.04254 26.8607 8.93427 26.9451 8.85444C27.0295 8.77461 27.1439 8.72976 27.2633 8.72976H28.7633C28.8826 8.72976 28.9971 8.77461 29.0815 8.85444C29.1659 8.93427 29.2133 9.04254 29.2133 9.15544V10.5744ZM29.2133 5.65544C29.2133 5.76833 29.1659 5.8766 29.0815 5.95643C28.9971 6.03626 28.8826 6.08111 28.7633 6.08111H27.2633C27.1439 6.08111 27.0295 6.03626 26.9451 5.95643C26.8607 5.8766 26.8133 5.76833 26.8133 5.65544V4.23652C26.8133 4.12362 26.8607 4.01535 26.9451 3.93552C27.0295 3.85569 27.1439 3.81084 27.2633 3.81084H28.7633C28.8826 3.81084 28.9971 3.85569 29.0815 3.93552C29.1659 4.01535 29.2133 4.12362 29.2133 4.23652V5.65544ZM20.8133 8.35138H1.61328C1.18893 8.35138 0.781963 8.51084 0.481904 8.79468C0.181846 9.07852 0.0132751 9.46349 0.0132751 9.86489L0.0132751 23.4865C0.0132751 23.8879 0.181846 24.2729 0.481904 24.5567C0.781963 24.8406 1.18893 25 1.61328 25H20.8133C21.2376 25 21.6446 24.8406 21.9446 24.5567C22.2447 24.2729 22.4133 23.8879 22.4133 23.4865V9.86489C22.4133 9.46349 22.2447 9.07852 21.9446 8.79468C21.6446 8.51084 21.2376 8.35138 20.8133 8.35138ZM4.81328 11.3784C5.12973 11.3784 5.43907 11.4672 5.70219 11.6335C5.96531 11.7998 6.17038 12.0362 6.29148 12.3127C6.41258 12.5893 6.44427 12.8936 6.38253 13.1872C6.3208 13.4808 6.16841 13.7505 5.94465 13.9621C5.72088 14.1738 5.43579 14.318 5.12542 14.3764C4.81505 14.4348 4.49334 14.4048 4.20098 14.2902C3.90862 14.1757 3.65873 13.9817 3.48292 13.7328C3.30711 13.4839 3.21328 13.1913 3.21328 12.8919C3.21328 12.4905 3.38185 12.1055 3.6819 11.8217C3.98196 11.5379 4.38893 11.3784 4.81328 11.3784ZM19.2133 21.973H3.21328V20.4595L6.41328 17.4325L8.01328 18.946L14.4133 12.8919L19.2133 17.4325V21.973Z" fill="white"/>
</svg>
