<svg width="14" height="14" viewBox="0 0 19 19" fill="none" xmlns="http://www.w3.org/2000/svg">
<path d="M10.0749 15.4619C10.0064 15.5672 9.91483 15.6533 9.80795 15.7127C9.70108 15.7722 9.58215 15.8033 9.46141 15.8033C9.34068 15.8033 9.22175 15.7722 9.11487 15.7127C9.008 15.6533 8.91638 15.5672 8.84791 15.4619L2.13074 5.1903C2.05299 5.07182 2.00739 4.93306 1.99891 4.78908C1.99042 4.64509 2.01937 4.50141 2.08261 4.37362C2.14585 4.24583 2.24096 4.13884 2.3576 4.06426C2.47425 3.98968 2.60797 3.95037 2.74424 3.95059H16.1786C16.3145 3.95119 16.4478 3.99101 16.5639 4.06576C16.6801 4.14052 16.7748 4.24739 16.8379 4.37488C16.901 4.50237 16.9301 4.64566 16.922 4.78933C16.9139 4.93301 16.869 5.07163 16.7921 5.1903L10.0749 15.4619Z" fill="white"/>
</svg>
