<svg width="20" height="20" viewBox="0 0 20 20" fill="none" xmlns="http://www.w3.org/2000/svg">
<path d="M10 0C15.514 0 20 4.486 20 10C20 15.514 15.514 20 10 20C4.486 20 0 15.514 0 10C0 4.486 4.486 0 10 0ZM9 16H11V14H9V16ZM8.024 11.115C8.22 11.273 8.409 11.424 8.559 11.574C8.967 11.981 8.999 12.351 9 12.367V12.5H11V12.333C11 12.215 10.971 11.156 9.974 10.159C9.779 9.964 9.537 9.766 9.283 9.56C8.549 8.965 8.067 8.531 8.067 7.933C8.07862 7.42782 8.2875 6.94725 8.64894 6.59412C9.01038 6.24099 9.49568 6.04334 10.001 6.04347C10.5063 6.0436 10.9915 6.2415 11.3528 6.59482C11.714 6.94814 11.9226 7.42881 11.934 7.934H13.934C13.934 5.765 12.169 4 10 4C7.831 4 6.066 5.765 6.066 7.934C6.066 9.531 7.245 10.484 8.024 11.115Z" fill="white"/>
</svg>
