<svg width="20" height="20" viewBox="0 0 32 32" fill="none" xmlns="http://www.w3.org/2000/svg">
<path d="M28.8625 16.4413L16.9156 3.10796C16.4125 2.54529 15.4462 2.54529 14.9431 3.10796L2.99616 16.4413C2.8242 16.6328 2.71132 16.8703 2.67126 17.125C2.6312 17.3797 2.66567 17.6406 2.77049 17.876C2.98288 18.3573 3.45811 18.6666 3.98244 18.6666H6.63731V28C6.63731 28.3536 6.77716 28.6927 7.0261 28.9428C7.27505 29.1928 7.61268 29.3333 7.96474 29.3333H11.947C12.2991 29.3333 12.6367 29.1928 12.8857 28.9428C13.1346 28.6927 13.2745 28.3536 13.2745 28V22.6666H18.5842V28C18.5842 28.3536 18.7241 28.6927 18.973 28.9428C19.2219 29.1928 19.5596 29.3333 19.9116 29.3333H23.8939C24.246 29.3333 24.5836 29.1928 24.8326 28.9428C25.0815 28.6927 25.2214 28.3536 25.2214 28V18.6666H27.8762C28.1333 18.6677 28.3852 18.5937 28.6011 18.4535C28.817 18.3133 28.9876 18.1131 29.0922 17.8771C29.1967 17.6412 29.2307 17.3799 29.1899 17.1249C29.1491 16.87 29.0354 16.6324 28.8625 16.4413Z" fill="white"/>
</svg>
