<svg width="21" height="21" viewBox="0 0 21 21" fill="none" xmlns="http://www.w3.org/2000/svg">
<path d="M10.5 0C12.5767 0 14.6068 0.615814 16.3335 1.76957C18.0602 2.92332 19.406 4.5632 20.2007 6.48182C20.9955 8.40045 21.2034 10.5116 20.7982 12.5484C20.3931 14.5852 19.3931 16.4562 17.9246 17.9246C16.4562 19.3931 14.5852 20.3931 12.5484 20.7982C10.5116 21.2034 8.40044 20.9955 6.48182 20.2007C4.56319 19.406 2.92332 18.0602 1.76956 16.3335C0.615808 14.6068 -3.8147e-06 12.5767 -3.8147e-06 10.5C-3.8147e-06 7.71523 1.10624 5.04451 3.07537 3.07538C5.04451 1.10625 7.71522 0 10.5 0ZM10.5 4.5C10.2775 4.5 10.06 4.56598 9.87498 4.6896C9.68997 4.81321 9.54578 4.98891 9.46063 5.19448C9.37548 5.40005 9.3532 5.62625 9.39661 5.84448C9.44002 6.06271 9.54717 6.26316 9.7045 6.4205C9.86183 6.57783 10.0623 6.68498 10.2805 6.72838C10.4987 6.77179 10.7249 6.74951 10.9305 6.66436C11.1361 6.57922 11.3118 6.43502 11.4354 6.25002C11.559 6.06501 11.625 5.8475 11.625 5.625C11.625 5.32663 11.5065 5.04048 11.2955 4.8295C11.0845 4.61853 10.7984 4.5 10.5 4.5ZM7.5 16.5938H13.5V14.9062H11.3437V10.5938H12.75V8.90625H9.65625V14.9062H7.5V16.5938Z" fill="white"/>
</svg>
