<svg width="36" height="36" viewBox="0 0 36 36" fill="none" xmlns="http://www.w3.org/2000/svg">
<path d="M36 18C36 27.9408 27.9415 36 18 36C8.05852 36 0 27.9408 0 18C0 8.05922 8.05852 0 18 0C27.9415 0 36 8.05922 36 18Z" fill="#171622"/>
<path d="M1.96875 9.81L9.81 1.96875C6.43932 3.69648 3.69648 6.43932 1.96875 9.81Z" fill="#171622"/>
<path d="M12.5902 0.827567L0.827582 12.5901C0.647909 13.1609 0.497016 13.7403 0.375473 14.3262L14.3262 0.375458C13.7403 0.496978 13.1609 0.647871 12.5902 0.827567Z" fill="#171622"/>
<path d="M16.2593 0.0845801L0.0873849 16.2565C0.0419162 16.7083 0.0144943 17.164 0.00511932 17.6233L17.6226 0.00512695C17.1637 0.014502 16.7093 0.0409863 16.2593 0.0845801Z" fill="#171622"/>
<path d="M19.2262 0.0422058L0.0421829 19.2256C0.0684329 19.6188 0.107339 20.0086 0.158902 20.3949L20.3941 0.158925C20.0088 0.107831 19.6195 0.0689246 19.2262 0.0422058Z" fill="#171622"/>
<path d="M21.7927 0.401489L0.401482 21.7934C0.476013 22.1407 0.560388 22.4843 0.654607 22.8241L22.8234 0.654614C22.4836 0.560396 22.14 0.476021 21.7927 0.401489Z" fill="#171622"/>
<path d="M24.0694 1.04974L1.05047 24.0701C1.16203 24.3827 1.28062 24.6907 1.40625 24.994L24.9933 1.40623C24.6905 1.28013 24.3825 1.16131 24.0694 1.04974Z" fill="#171622"/>
<path d="M26.1148 1.92938L1.92726 26.1169C2.06789 26.3981 2.21765 26.6761 2.37656 26.9508L26.9494 2.37868C26.6756 2.22165 26.3974 2.07188 26.1148 1.92938Z" fill="#171622"/>
<path d="M27.9626 3.00726L3.00727 27.9626C3.17743 28.2185 3.35391 28.4698 3.53672 28.7163L28.717 3.53742C28.4705 3.35414 28.219 3.17742 27.9626 3.00726Z" fill="#171622"/>
<path d="M29.6318 4.26376L4.26446 29.6318C4.4604 29.8629 4.66196 30.0891 4.86915 30.3103L30.3103 4.86915C30.0891 4.6615 29.8629 4.4597 29.6318 4.26376Z" fill="#171622"/>
<path d="M31.1309 5.689L5.68968 31.1309C5.91093 31.3381 6.1371 31.5396 6.3682 31.7356L31.7369 6.36892C31.5405 6.13735 31.3385 5.91071 31.1309 5.689Z" fill="#171622"/>
<path d="M32.4626 7.28299L7.28297 32.4626C7.52954 32.6459 7.78102 32.8226 8.03743 32.9928L32.9927 8.03744C32.8221 7.7815 32.6454 7.53002 32.4626 7.28299Z" fill="#171622"/>
<path d="M33.6213 9.05063L9.04993 33.6206C9.32368 33.7777 9.60211 33.9277 9.88524 34.0706L34.0727 9.88313C33.9284 9.60188 33.7779 9.32438 33.6213 9.05063Z" fill="#171622"/>
<path d="M34.5937 11.006L11.006 34.5937C11.3098 34.7217 11.6177 34.8415 11.9299 34.953L34.9495 11.9299C34.838 11.6173 34.7194 11.3093 34.5937 11.006Z" fill="#171622"/>
<path d="M35.3454 13.1773L13.1766 35.3454C13.5159 35.4392 13.8595 35.5235 14.2073 35.5985L35.5985 14.2074C35.524 13.86 35.4396 13.5167 35.3454 13.1773Z" fill="#171622"/>
<path d="M35.8411 15.6094L15.6052 35.8411C15.9909 35.8922 16.3805 35.9311 16.7737 35.9578L35.9578 16.7737C35.9311 16.3809 35.8922 15.9928 35.8411 15.6094Z" fill="#171622"/>
<path d="M35.9163 19.7402C35.9595 19.2907 35.9859 18.8365 35.9958 18.3776L18.3776 35.9951C18.8365 35.9857 19.2909 35.9592 19.7409 35.9156L35.9163 19.7402Z" fill="#171622"/>
<path d="M23.4084 35.1724L35.1724 23.4084C35.3518 22.8379 35.5025 22.2588 35.6238 21.6731L21.6724 35.6245C22.2583 35.503 22.8377 35.3521 23.4084 35.1724Z" fill="#171622"/>
<path d="M34.0312 26.1907L26.19 34.0313C29.5605 32.3036 32.3033 29.5611 34.0312 26.1907Z" fill="#171622"/>
<path fill-rule="evenodd" clip-rule="evenodd" d="M21.1894 11.9426V17.3363C21.1848 17.4822 21.1702 17.6276 21.1458 17.7715H21.1584C21.1535 17.8081 21.1402 17.8418 21.1338 17.8777C21.1184 17.9606 21.0973 18.0422 21.0755 18.1238C21.0469 18.2348 21.0121 18.3442 20.9714 18.4514C20.9405 18.5295 20.9067 18.6054 20.8695 18.682C20.8202 18.7823 20.7657 18.8799 20.7063 18.9745C20.6631 19.0472 20.6161 19.1176 20.5657 19.1855C20.4954 19.2755 20.4251 19.3585 20.3548 19.4421C20.2985 19.504 20.2423 19.5645 20.1797 19.6221C20.0961 19.6982 20.0086 19.7698 19.9174 19.8366C19.8513 19.8851 19.7866 19.9357 19.7163 19.9772C19.6152 20.0387 19.511 20.095 19.4041 20.146C19.3338 20.1797 19.2635 20.2163 19.1932 20.2486C19.0683 20.2949 18.9408 20.3339 18.8114 20.3653C18.7467 20.3829 18.6848 20.4075 18.618 20.4195C18.415 20.4603 18.2085 20.4813 18.0014 20.482C16.2436 20.482 14.8113 19.0667 14.8113 17.337V11.9426C14.8156 11.7968 14.8307 11.6516 14.8563 11.5081H14.8416C14.8465 11.4708 14.8613 11.4377 14.8676 11.4019C14.8823 11.3182 14.9041 11.2367 14.9259 11.1558C14.9544 11.045 14.9889 10.9359 15.0293 10.8288C15.0602 10.7501 15.0954 10.6742 15.1327 10.5982C15.1819 10.4977 15.2364 10.3999 15.2958 10.305C15.3394 10.2347 15.3851 10.1644 15.4364 10.0941C15.5067 10.0048 15.577 9.92111 15.6509 9.83884C15.7071 9.77697 15.7634 9.7158 15.8238 9.65814C15.9075 9.5822 15.9961 9.5133 16.0875 9.4472C16.1536 9.39798 16.2162 9.34736 16.2872 9.30306C16.388 9.24147 16.492 9.18514 16.5987 9.13431C16.669 9.09986 16.7393 9.064 16.8096 9.03095C16.9339 8.98451 17.0609 8.94577 17.19 8.91494C17.2561 8.89736 17.318 8.87275 17.3855 8.86009C17.588 8.81943 17.7941 8.79871 18.0007 8.79822C19.7578 8.79892 21.1894 10.2136 21.1894 11.9426ZM22.6659 16.6774C22.7512 16.6768 22.8357 16.6929 22.9147 16.7249C22.9937 16.757 23.0656 16.8042 23.1263 16.864C23.187 16.9238 23.2354 16.995 23.2686 17.0735C23.3018 17.152 23.3192 17.2363 23.3198 17.3215H23.3156C23.3161 18.0111 23.1787 18.6939 22.9115 19.3296C22.6443 19.9654 22.2526 20.5413 21.7596 21.0235C21.0283 21.7441 20.104 22.2377 19.0983 22.4445V25.9334H20.6452C20.8141 25.9324 20.9766 25.9985 21.0969 26.1171C21.2172 26.2357 21.2856 26.3972 21.2871 26.5662C21.2854 26.7351 21.217 26.8965 21.0967 27.015C20.9764 27.1336 20.8141 27.1997 20.6452 27.199H15.3281C15.159 27.2001 14.9964 27.1341 14.8759 27.0155C14.7555 26.8969 14.687 26.7353 14.6855 26.5662C14.6861 26.4824 14.7032 26.3996 14.7359 26.3225C14.7685 26.2454 14.8161 26.1754 14.8757 26.1167C14.9354 26.0579 15.0061 26.0115 15.0837 25.98C15.1613 25.9486 15.2444 25.9327 15.3281 25.9334H16.875V22.4431C15.8788 22.2325 14.9642 21.7397 14.2404 21.0235C13.747 20.5408 13.3552 19.9643 13.0879 19.328C12.8207 18.6916 12.6835 18.0082 12.6844 17.318C12.6844 17.1445 12.7533 16.9781 12.876 16.8554C12.9987 16.7327 13.1651 16.6637 13.3386 16.6637C13.5122 16.6637 13.6786 16.7327 13.8013 16.8554C13.924 16.9781 13.9929 17.1445 13.9929 17.318C13.9933 17.8387 14.0977 18.3541 14.2998 18.834C14.5019 19.314 14.7977 19.7487 15.1699 20.1129C15.9238 20.8576 16.9404 21.2756 18 21.2766C19.0607 21.2772 20.0791 20.8605 20.835 20.1164C21.2069 19.752 21.5026 19.3172 21.7046 18.8374C21.9067 18.3575 22.0112 17.8422 22.012 17.3215C22.0125 17.2363 22.0297 17.1521 22.0628 17.0736C22.0959 16.9951 22.1441 16.9239 22.2047 16.8641C22.2653 16.8043 22.3371 16.757 22.416 16.725C22.4949 16.6929 22.5794 16.6768 22.6645 16.6774H22.6659Z" fill="white"/>
</svg>
