<svg width="20" height="20" viewBox="0 0 32 32" fill="none" xmlns="http://www.w3.org/2000/svg">
<path d="M5.3208 17.3394C6.05362 17.3394 6.64768 16.7427 6.64768 16.0067C6.64768 15.2706 6.05362 14.6739 5.3208 14.6739C4.58798 14.6739 3.99392 15.2706 3.99392 16.0067C3.99392 16.7427 4.58798 17.3394 5.3208 17.3394Z" stroke="white" stroke-width="2.66556"/>
<path d="M15.9358 17.3394C16.6687 17.3394 17.2627 16.7427 17.2627 16.0066C17.2627 15.2705 16.6687 14.6738 15.9358 14.6738C15.203 14.6738 14.609 15.2705 14.609 16.0066C14.609 16.7427 15.203 17.3394 15.9358 17.3394Z" stroke="white" stroke-width="2.66556"/>
<path d="M26.5509 17.3394C27.2837 17.3394 27.8778 16.7427 27.8778 16.0066C27.8778 15.2705 27.2837 14.6738 26.5509 14.6738C25.8181 14.6738 25.224 15.2705 25.224 16.0066C25.224 16.7427 25.8181 17.3394 26.5509 17.3394Z" stroke="white" stroke-width="2.66556"/>
</svg>
