<svg width="24" height="24" viewBox="0 0 24 24" fill="none" xmlns="http://www.w3.org/2000/svg">
<path d="M2.46975 14.4697L4.5 12.4395V9.75C4.50233 7.89138 5.19373 6.09964 6.44053 4.72124C7.68732 3.34284 9.40093 2.4757 11.25 2.2875V0.75H12.75V2.2875C14.5991 2.4757 16.3127 3.34284 17.5595 4.72124C18.8063 6.09964 19.4977 7.89138 19.5 9.75V12.4395L21.5303 14.4697C21.6709 14.6104 21.75 14.8011 21.75 15V17.25C21.75 17.4489 21.671 17.6397 21.5303 17.7803C21.3897 17.921 21.1989 18 21 18H15.75V18.75C15.75 19.7446 15.3549 20.6984 14.6517 21.4016C13.9484 22.1049 12.9946 22.5 12 22.5C11.0054 22.5 10.0516 22.1049 9.34835 21.4016C8.64509 20.6984 8.25 19.7446 8.25 18.75V18H3C2.80109 18 2.61032 17.921 2.46967 17.7803C2.32902 17.6397 2.25 17.4489 2.25 17.25V15C2.25004 14.8011 2.32909 14.6104 2.46975 14.4697ZM9.75 18.75C9.75 19.3467 9.98705 19.919 10.409 20.341C10.831 20.7629 11.4033 21 12 21C12.5967 21 13.169 20.7629 13.591 20.341C14.0129 19.919 14.25 19.3467 14.25 18.75V18H9.75V18.75Z" fill="white"/>
</svg>
