<svg width="21" height="15" viewBox="0 0 21 15" fill="none" xmlns="http://www.w3.org/2000/svg">
<path d="M17.25 0C18.2446 0 19.1984 0.395088 19.9017 1.09835C20.6049 1.80161 21 2.75544 21 3.75V4.5H0V3.75C0 2.75544 0.395088 1.80161 1.09835 1.09835C1.80161 0.395088 2.75544 0 3.75 0H17.25ZM0 6H21V11.25C21 12.2446 20.6049 13.1984 19.9017 13.9017C19.1984 14.6049 18.2446 15 17.25 15H3.75C2.75544 15 1.80161 14.6049 1.09835 13.9017C0.395088 13.1984 0 12.2446 0 11.25V6ZM6.75 10.5H3.75C3.55109 10.5 3.36032 10.579 3.21967 10.7197C3.07902 10.8603 3 11.0511 3 11.25C3 11.4489 3.07902 11.6397 3.21967 11.7803C3.36032 11.921 3.55109 12 3.75 12H6.75C6.94891 12 7.13968 11.921 7.28033 11.7803C7.42098 11.6397 7.5 11.4489 7.5 11.25C7.5 11.0511 7.42098 10.8603 7.28033 10.7197C7.13968 10.579 6.94891 10.5 6.75 10.5Z" fill="white"/>
</svg>
