<svg width="100" height="79" viewBox="0 0 100 79" fill="none" xmlns="http://www.w3.org/2000/svg">
<path d="M76.875 34.6422H71.5625C71.25 34.6422 70.9375 34.8879 70.7812 35.1336L68.5938 45.944C68.5938 46.1897 68.75 46.3125 69.0625 46.3125H71.875C72.1875 46.3125 72.3437 46.1897 72.3437 45.944L72.9687 42.8728C72.9687 42.6272 73.2812 42.3815 73.75 42.3815H75.4687C79.0625 42.3815 81.0937 41.0302 81.5625 38.3276C81.875 37.222 81.5625 36.2392 80.9375 35.625C80 35.0108 78.5937 34.6422 76.875 34.6422ZM77.5 38.6961C77.1875 40.1703 75.7812 40.1703 74.375 40.1703H73.4375L74.0625 37.3448C74.0625 37.222 74.2187 37.0991 74.5312 37.0991H74.8437C75.7812 37.0991 76.7187 37.0991 77.1875 37.5905C77.5 37.7134 77.5 38.0819 77.5 38.6961Z" fill="#139AD6"/>
<path d="M38.5938 34.6422H33.2812C32.9687 34.6422 32.6562 34.8879 32.5 35.1336L30.3125 45.944C30.3125 46.1897 30.4688 46.3125 30.7813 46.3125H33.2812C33.5937 46.3125 33.9062 46.0668 34.0625 45.8211L34.6875 42.8728C34.6875 42.6272 35 42.3815 35.4688 42.3815H37.1875C40.7812 42.3815 42.8125 41.0302 43.2813 38.3276C43.5938 37.222 43.2812 36.2392 42.6562 35.625C41.7187 35.0108 40.4688 34.6422 38.5938 34.6422ZM39.2188 38.6961C38.9063 40.1703 37.5 40.1703 36.0938 40.1703H35.3125L35.9375 37.3448C35.9375 37.222 36.0937 37.0991 36.4062 37.0991H36.7188C37.6562 37.0991 38.5938 37.0991 39.0625 37.5905C39.2188 37.7134 39.375 38.0819 39.2188 38.6961ZM54.6875 38.5733H52.1875C52.0313 38.5733 51.7187 38.6961 51.7187 38.819L51.5625 39.4332L51.4063 39.1875C50.7813 38.5733 49.6875 38.3276 48.4375 38.3276C45.625 38.3276 43.125 40.0474 42.6562 42.3815C42.3437 43.6099 42.8125 44.7155 43.5937 45.4526C44.375 46.1897 45.4687 46.4353 46.875 46.4353C49.2188 46.4353 50.4687 45.3297 50.4687 45.3297L50.3125 45.944C50.3125 46.1897 50.4688 46.3125 50.7812 46.3125H53.125C53.4375 46.3125 53.75 46.0668 53.9062 45.8211L55.3125 38.9418C55.1563 38.819 54.8437 38.5733 54.6875 38.5733ZM51.0938 42.5043C50.7812 43.6099 49.6875 44.4698 48.125 44.4698C47.3437 44.4698 46.7188 44.2241 46.4062 43.9784C46.0938 43.6099 45.9375 43.1185 45.9375 42.5043C46.0937 41.3987 47.3438 40.5388 48.75 40.5388C49.5312 40.5388 50 40.7845 50.4687 41.0302C50.9375 41.3987 51.0938 42.0129 51.0938 42.5043Z" fill="#263B80"/>
<path d="M92.8125 38.5733H90.3125C90.1562 38.5733 89.8437 38.6961 89.8437 38.819L89.6875 39.4332L89.5312 39.1875C88.9062 38.5733 87.8125 38.3276 86.5625 38.3276C83.75 38.3276 81.25 40.0474 80.7812 42.3815C80.4687 43.6099 80.9375 44.7155 81.7187 45.4526C82.5 46.1897 83.5937 46.4353 85 46.4353C87.3437 46.4353 88.5937 45.3297 88.5937 45.3297L88.4375 45.944C88.4375 46.1897 88.5937 46.3125 88.9062 46.3125H91.25C91.5625 46.3125 91.875 46.0668 92.0312 45.8211L93.4375 38.9418C93.2812 38.819 93.125 38.5733 92.8125 38.5733ZM89.2187 42.5043C88.9062 43.6099 87.8125 44.4698 86.25 44.4698C85.4687 44.4698 84.8437 44.2241 84.5312 43.9785C84.2187 43.6099 84.0625 43.1185 84.0625 42.5043C84.2187 41.3987 85.4687 40.5388 86.875 40.5388C87.6562 40.5388 88.125 40.7845 88.5937 41.0302C89.2187 41.3987 89.375 42.0129 89.2187 42.5043Z" fill="#139AD6"/>
<path d="M68.2812 38.5733H65.625C65.3125 38.5733 65.1562 38.6961 65 38.819L61.5625 42.9957L60 39.0647C59.8438 38.819 59.6875 38.6961 59.2188 38.6961H56.7187C56.4062 38.6961 56.25 38.9418 56.25 39.1875L59.0625 45.6983L56.4062 48.6465C56.25 48.8922 56.4062 49.2608 56.7187 49.2608H59.2188C59.5313 49.2608 59.6875 49.1379 59.8437 49.0151L68.4375 39.3103C68.9062 38.9418 68.5938 38.5733 68.2812 38.5733Z" fill="#263B80"/>
<path d="M95.7812 35.0108L93.5938 46.0668C93.5938 46.3125 93.75 46.4353 94.0625 46.4353H96.25C96.5625 46.4353 96.875 46.1897 97.0312 45.944L99.2187 35.1336C99.2187 34.8879 99.0625 34.7651 98.75 34.7651H96.25C96.0937 34.6422 95.9375 34.7651 95.7812 35.0108Z" fill="#139AD6"/>
<path d="M18.75 30.9569C17.6563 29.9741 15.625 29.4828 12.8125 29.4828H5C4.53125 29.4828 4.0625 29.8513 3.90625 30.2198L0.78125 46.3125C0.78125 46.681 1.09375 46.9267 1.40625 46.9267H6.25L7.5 40.9073V41.153C7.65625 40.7845 8.125 40.4159 8.59375 40.4159H10.9375C15.4688 40.4159 18.9063 38.9418 20 34.8879V34.5194C19.8438 34.5194 19.8438 34.5194 20 34.5194C20.1563 32.9224 19.8438 31.9397 18.75 30.9569Z" fill="#263B80"/>
<path d="M19.8438 34.5194V34.8879C18.75 39.0647 15.3125 40.416 10.7812 40.416H8.4375C7.96875 40.416 7.5 40.7845 7.34375 41.153L5.78125 48.6466C5.78125 48.8923 5.9375 49.1379 6.40625 49.1379H10.4687C10.9375 49.1379 11.4062 48.8923 11.4062 48.5237V48.4009L12.1875 44.5927V44.347C12.1875 43.9785 12.6562 43.7328 13.125 43.7328H13.75C17.6563 43.7328 20.7813 42.5043 21.5625 38.819C21.875 37.3448 21.7188 35.9935 20.7813 35.1336C20.625 34.8879 20.3125 34.6423 19.8438 34.5194Z" fill="#139AD6"/>
<path d="M18.75 34.1509C18.5938 34.1509 18.4375 34.028 18.2812 34.028C18.125 34.028 17.9687 34.028 17.8125 33.9052C17.1875 33.7823 16.5625 33.7823 15.7812 33.7823H9.6875C9.53125 33.7823 9.375 33.7823 9.21875 33.9052C8.90625 34.028 8.75 34.2737 8.75 34.5194L7.5 40.9073V41.153C7.65625 40.7845 8.125 40.416 8.59375 40.416H10.9375C15.4688 40.416 18.9062 38.9418 20 34.8879C20 34.7651 20 34.6422 20.1562 34.5194C19.8437 34.3966 19.6875 34.2737 19.375 34.2737C18.9062 34.1509 18.9062 34.1509 18.75 34.1509Z" fill="#232C65"/>
</svg>
