<svg width="20" height="20" viewBox="0 0 32 32" fill="none" xmlns="http://www.w3.org/2000/svg">
<path fill-rule="evenodd" clip-rule="evenodd" d="M9.82912 23.1426C14.3723 22.4759 17.5004 22.5333 22.0495 23.1659C22.3789 23.2139 22.68 23.38 22.897 23.6335C23.114 23.887 23.2324 24.2109 23.2302 24.5453C23.2302 24.8653 23.1207 25.1759 22.9229 25.4186C22.5782 25.8417 22.225 26.2578 21.8636 26.6666H23.6165C23.7267 26.5346 23.8375 26.3999 23.9497 26.2633C24.3434 25.7783 24.5582 25.1716 24.5577 24.5459C24.5577 23.1959 23.5767 22.0326 22.2313 21.8459C17.5747 21.1986 14.3198 21.1366 9.63731 21.8239C8.27802 22.0233 7.30103 23.2046 7.30103 24.5639C7.30103 25.1673 7.49682 25.7639 7.86784 26.2473C7.97735 26.3899 8.08554 26.5299 8.19306 26.6673H9.90346C9.56724 26.2629 9.23929 25.8517 8.91983 25.4339C8.72998 25.1838 8.62757 24.8778 8.62846 24.5633C8.62846 23.8453 9.14218 23.2433 9.82912 23.1426ZM15.9293 16.6666C16.4523 16.6666 16.9702 16.5631 17.4533 16.3621C17.9365 16.1611 18.3755 15.8664 18.7453 15.495C19.1151 15.1236 19.4084 14.6826 19.6085 14.1973C19.8086 13.712 19.9116 13.1919 19.9116 12.6666C19.9116 12.1413 19.8086 11.6212 19.6085 11.1359C19.4084 10.6506 19.1151 10.2096 18.7453 9.83816C18.3755 9.46672 17.9365 9.17209 17.4533 8.97107C16.9702 8.77005 16.4523 8.66659 15.9293 8.66659C14.8732 8.66659 13.8603 9.08801 13.1134 9.83816C12.3666 10.5883 11.947 11.6057 11.947 12.6666C11.947 13.7275 12.3666 14.7449 13.1134 15.495C13.8603 16.2452 14.8732 16.6666 15.9293 16.6666ZM15.9293 17.9999C17.3376 17.9999 18.6881 17.438 19.6839 16.4378C20.6797 15.4376 21.2391 14.0811 21.2391 12.6666C21.2391 11.2521 20.6797 9.89554 19.6839 8.89535C18.6881 7.89516 17.3376 7.33325 15.9293 7.33325C14.5211 7.33325 13.1706 7.89516 12.1748 8.89535C11.179 9.89554 10.6196 11.2521 10.6196 12.6666C10.6196 14.0811 11.179 15.4376 12.1748 16.4378C13.1706 17.438 14.5211 17.9999 15.9293 17.9999Z" fill="white"/>
<path fill-rule="evenodd" clip-rule="evenodd" d="M15.9292 28C22.5272 28 27.8761 22.6273 27.8761 16C27.8761 9.37267 22.5272 4.00001 15.9292 4.00001C9.33119 4.00001 3.9823 9.37267 3.9823 16C3.9823 22.6273 9.33119 28 15.9292 28ZM15.9292 29.3333C23.2606 29.3333 29.2035 23.364 29.2035 16C29.2035 8.63601 23.2606 2.66667 15.9292 2.66667C8.59778 2.66667 2.65486 8.63601 2.65486 16C2.65486 23.364 8.59778 29.3333 15.9292 29.3333Z" fill="white"/>
</svg>
