<svg width="69" height="9" viewBox="0 0 69 9" fill="none" xmlns="http://www.w3.org/2000/svg">
<path d="M4.19715 0.313075L3.04944 2.64013L0.481589 3.0145C0.0210995 3.08129 -0.163448 3.64899 0.170495 3.97415L2.02827 5.78447L1.58887 8.34177C1.50978 8.80402 1.99664 9.15026 2.4044 8.93408L4.70158 7.72661L6.99875 8.93408C7.40652 9.14851 7.89337 8.80402 7.81428 8.34177L7.37488 5.78447L9.23266 3.97415C9.5666 3.64899 9.38205 3.08129 8.92156 3.0145L6.35372 2.64013L5.20601 0.313075C5.00037 -0.101718 4.40454 -0.10699 4.19715 0.313075Z" fill="#D28E27"/>
<path d="M19.1971 0.313075L18.0494 2.64013L15.4816 3.0145C15.0211 3.08129 14.8366 3.64899 15.1705 3.97415L17.0283 5.78447L16.5889 8.34177C16.5098 8.80402 16.9966 9.15026 17.4044 8.93408L19.7016 7.72661L21.9988 8.93408C22.4065 9.14851 22.8934 8.80402 22.8143 8.34177L22.3749 5.78447L24.2327 3.97415C24.5666 3.64899 24.3821 3.08129 23.9216 3.0145L21.3537 2.64013L20.206 0.313075C20.0004 -0.101718 19.4045 -0.10699 19.1971 0.313075Z" fill="#D28E27"/>
<path d="M34.1971 0.313075L33.0494 2.64013L30.4816 3.0145C30.0211 3.08129 29.8366 3.64899 30.1705 3.97415L32.0283 5.78447L31.5889 8.34177C31.5098 8.80402 31.9966 9.15026 32.4044 8.93408L34.7016 7.72661L36.9988 8.93408C37.4065 9.14851 37.8934 8.80402 37.8143 8.34177L37.3749 5.78447L39.2327 3.97415C39.5666 3.64899 39.3821 3.08129 38.9216 3.0145L36.3537 2.64013L35.206 0.313075C35.0004 -0.101718 34.4045 -0.10699 34.1971 0.313075Z" fill="#D28E27"/>
<path d="M49.1971 0.313075L48.0494 2.64013L45.4816 3.0145C45.0211 3.08129 44.8366 3.64899 45.1705 3.97415L47.0283 5.78447L46.5889 8.34177C46.5098 8.80402 46.9966 9.15026 47.4044 8.93408L49.7016 7.72661L51.9988 8.93408C52.4065 9.14851 52.8934 8.80402 52.8143 8.34177L52.3749 5.78447L54.2327 3.97415C54.5666 3.64899 54.3821 3.08129 53.9216 3.0145L51.3537 2.64013L50.206 0.313075C50.0004 -0.101718 49.4045 -0.10699 49.1971 0.313075Z" fill="#D28E27"/>
<path d="M63.1971 0.313075L62.0494 2.64013L59.4816 3.0145C59.0211 3.08129 58.8366 3.64899 59.1705 3.97415L61.0283 5.78447L60.5889 8.34177C60.5098 8.80402 60.9966 9.15026 61.4044 8.93408L63.7016 7.72661L65.9988 8.93408C66.4065 9.14851 66.8934 8.80402 66.8143 8.34177L66.3749 5.78447L68.2327 3.97415C68.5666 3.64899 68.3821 3.08129 67.9216 3.0145L65.3537 2.64013L64.206 0.313075C64.0004 -0.101718 63.4045 -0.10699 63.1971 0.313075Z" fill="#171715"/>
</svg>
