<svg width="19" height="19" viewBox="0 0 19 19" fill="none" xmlns="http://www.w3.org/2000/svg">
<path d="M18.7384 16.4267L15.039 12.7273C14.872 12.5603 14.6456 12.4675 14.4082 12.4675H13.8033C14.8275 11.1577 15.436 9.5102 15.436 7.718C15.436 3.45455 11.9814 0 7.718 0C3.45455 0 0 3.45455 0 7.718C0 11.9814 3.45455 15.436 7.718 15.436C9.5102 15.436 11.1577 14.8275 12.4675 13.8033V14.4082C12.4675 14.6456 12.5603 14.872 12.7273 15.039L16.4267 18.7384C16.7755 19.0872 17.3395 19.0872 17.6846 18.7384L18.7347 17.6883C19.0835 17.3395 19.0835 16.7755 18.7384 16.4267ZM7.718 12.4675C5.09462 12.4675 2.96846 10.3451 2.96846 7.718C2.96846 5.09462 5.09091 2.96846 7.718 2.96846C10.3414 2.96846 12.4675 5.09091 12.4675 7.718C12.4675 10.3414 10.3451 12.4675 7.718 12.4675Z" fill="white"/>
</svg>
