<svg width="18" height="20" viewBox="0 0 18 20" fill="none" xmlns="http://www.w3.org/2000/svg">
<path d="M13.75 12.5C12.8669 12.5 12.0552 12.8054 11.4145 13.3162L7.41109 10.8141C7.52965 10.2778 7.52965 9.72213 7.41109 9.18586L11.4145 6.68375C12.0552 7.19457 12.8669 7.5 13.75 7.5C15.8211 7.5 17.5 5.82105 17.5 3.75C17.5 1.67895 15.8211 0 13.75 0C11.6789 0 10 1.67895 10 3.75C10 4.02961 10.0309 4.30195 10.0889 4.5641L6.08555 7.06621C5.4448 6.55543 4.63313 6.25 3.75 6.25C1.67895 6.25 0 7.92895 0 10C0 12.0711 1.67895 13.75 3.75 13.75C4.63313 13.75 5.4448 13.4446 6.08555 12.9338L10.0889 15.4359C10.0297 15.7032 9.99992 15.9762 10 16.25C10 18.3211 11.6789 20 13.75 20C15.8211 20 17.5 18.3211 17.5 16.25C17.5 14.1789 15.8211 12.5 13.75 12.5Z" fill="white"/>
</svg>
