<svg width="40" height="40" viewBox="0 0 60 60" fill="none" xmlns="http://www.w3.org/2000/svg">
<path d="M10.19 25.9575C10.0007 25.5006 9.95126 24.9978 10.0478 24.5127C10.1444 24.0277 10.3827 23.5822 10.7325 23.2325L23.2325 10.7325L26.7675 14.2675L18.535 22.5H50V27.5H12.5C12.0056 27.5002 11.5222 27.3537 11.1111 27.0791C10.6999 26.8046 10.3794 26.4143 10.19 25.9575V25.9575ZM49.81 34.0425C49.9993 34.4995 50.0487 35.0023 49.9522 35.4873C49.8556 35.9724 49.6173 36.4179 49.2675 36.7675L36.7675 49.2675L33.2325 45.7325L41.465 37.5H10V32.5H47.5C47.9945 32.4996 48.478 32.6459 48.8892 32.9205C49.3005 33.1951 49.6209 33.5856 49.81 34.0425V34.0425Z" fill="white"/>
</svg>
