<svg width="86" height="23" viewBox="0 0 86 23" fill="none" xmlns="http://www.w3.org/2000/svg">
<path d="M36.914 22.5697H29.9658L34.3083 0.838283H41.2572L36.914 22.5697ZM24.1206 0.838283L17.4965 15.7853L16.7126 12.5666L16.7134 12.5678L14.3754 2.79495C14.3754 2.79495 14.0927 0.838283 11.0794 0.838283H0.128499L0 1.20625C0 1.20625 3.34881 1.7736 7.26801 3.69015L13.3046 22.5703H20.544L31.5985 0.838283H24.1206ZM78.7716 22.5697H85.1516L79.589 0.837702H74.0036C71.4244 0.837702 70.7962 2.45721 70.7962 2.45721L60.4335 22.5697H67.6765L69.125 19.3417H77.9578L78.7716 22.5697ZM71.126 14.8825L74.7767 6.75012L76.8306 14.8825H71.126ZM60.9767 6.06419L61.9683 1.39749C61.9683 1.39749 58.9086 0.449974 55.719 0.449974C52.271 0.449974 44.0828 1.6771 44.0828 7.64417C44.0828 13.2584 53.693 13.3281 53.693 16.2771C53.693 19.226 45.0729 18.6976 42.2281 16.838L41.1951 21.7175C41.1951 21.7175 44.2977 22.9446 49.0378 22.9446C53.7794 22.9446 60.9325 20.9455 60.9325 15.5045C60.9325 9.85428 51.2359 9.3282 51.2359 6.87162C51.2366 4.41445 58.0034 4.7301 60.9767 6.06419Z" fill="#2566AF"/>
<path d="M16.9097 12.2244L14.5443 2.33677C14.5443 2.33677 14.2583 0.357117 11.2096 0.357117H0.130008L0 0.729404C0 0.729404 5.32528 1.62807 10.4332 4.99513C15.3171 8.21338 16.9097 12.2244 16.9097 12.2244Z" fill="#E6A540"/>
</svg>
